<svg viewBox="0 0 624 154" fill="none" xmlns="http://www.w3.org/2000/svg">
    <path d="M34.7452 151.196C51.1038 151.196 63.7043 141.457 68.5677 134.374C71.8836 144.556 80.7261 151.196 93.3266 151.196C118.085 151.196 132.233 125.52 137.097 106.927C137.76 104.492 137.318 102.943 134.665 102.057L126.044 99.4013C123.391 98.516 121.843 99.4013 120.959 102.057C117.864 110.247 110.348 128.84 100.179 128.84C93.9897 128.84 93.3265 121.757 95.095 110.026L102.169 64.4288C102.611 61.994 101.064 60.0019 98.411 60.0019H80.726C78.0733 60.0019 76.0837 61.7726 75.6416 64.4288L75.4206 65.7568C71.8836 62.658 64.8097 57.3457 52.8723 57.3457C31.4294 57.3457 11.7548 74.168 4.68091 97.4092C-3.27733 123.749 7.33362 151.196 34.7452 151.196ZM72.1046 87.2273C69.0098 109.141 57.2935 128.84 43.5877 128.84C33.1978 128.84 28.5556 117.109 31.8715 104.05C35.8506 88.7768 47.1247 80.3656 57.9567 80.3656C65.6938 80.3656 69.894 84.7925 72.1046 87.2273Z" fill="#F1F5F9" stroke="#1E293B" stroke-width="4" stroke-miterlimit="2"/>
    <path d="M168.805 72.1748L170.574 61.7716C171.016 59.3368 169.247 57.3447 166.816 57.3447H154.878L157.752 38.5303C158.194 36.0955 156.426 34.1034 153.994 34.1034H136.309C133.656 34.1034 131.667 35.8742 131.225 38.5303L128.13 57.3447H120.614C117.961 57.3447 115.75 59.1154 115.529 61.7716L113.761 72.1748C113.54 74.6096 115.087 76.6017 117.519 76.6017H125.256L118.624 117.551C115.75 136.144 125.698 151.195 145.373 151.195C169.468 151.195 183.837 125.519 188.701 106.926C189.364 104.491 188.922 102.942 186.269 102.056L177.648 99.4003C174.553 98.7363 173.447 99.6217 172.563 102.056C169.468 110.246 161.731 128.839 152.226 128.839C145.373 128.839 144.709 121.756 146.478 110.025L151.783 76.6017H163.721C166.816 76.6017 168.584 74.831 168.805 72.1748Z" fill="#F1F5F9" stroke="#1E293B" stroke-width="4" stroke-miterlimit="2"/>
    <path d="M256.207 101.836L247.586 99.1795C245.154 98.5154 243.607 98.9581 242.501 101.393C232.333 122.642 221.058 128.397 213.763 128.397C201.826 128.397 195.857 112.239 195.194 95.8593C212.658 91.4324 233.438 78.8157 244.491 56.0171C254.439 35.2106 258.418 2.00879 228.574 2.00879C206.026 2.00879 181.931 28.7916 172.646 71.7326C165.572 104.27 169.551 151.196 207.353 151.196C229.017 151.196 247.365 135.701 257.312 108.919C259.081 104.492 259.302 102.942 256.207 101.836ZM197.184 75.4955C202.71 49.3767 217.743 25.2501 225.48 24.8074C231.227 24.586 230.122 38.3095 223.048 51.3688C216.195 64.4282 205.805 72.3967 197.184 75.4955Z" fill="#F1F5F9" stroke="#1E293B" stroke-width="4" stroke-miterlimit="2"/>
    <path d="M267.464 151.196C283.823 151.196 296.423 141.457 301.287 134.374C304.603 144.556 313.445 151.196 326.046 151.196C350.804 151.196 364.952 125.52 369.816 106.927C370.479 104.492 370.037 102.943 367.384 102.057L358.763 99.4013C356.11 98.516 354.562 99.4013 353.678 102.057C350.583 110.247 343.067 128.84 332.898 128.84C326.709 128.84 326.046 121.757 327.814 110.026L334.888 64.4288C335.33 61.994 333.783 60.0019 331.13 60.0019H313.445C310.792 60.0019 308.803 61.7726 308.361 64.4288L308.14 65.7568C304.603 62.658 297.529 57.3457 285.591 57.3457C264.148 57.3457 244.474 74.168 237.4 97.4092C229.442 123.749 240.053 151.196 267.464 151.196ZM304.824 87.2273C301.729 109.141 290.013 128.84 276.307 128.84C265.917 128.84 261.275 117.109 264.591 104.05C268.57 88.7768 279.844 80.3656 290.676 80.3656C298.413 80.3656 302.613 84.7925 304.824 87.2273Z" fill="#F1F5F9" stroke="#1E293B" stroke-width="4" stroke-miterlimit="2"/>
    <path d="M347.143 144.113C346.922 146.548 348.47 148.54 350.901 148.54H368.586C371.681 148.54 373.228 146.769 373.67 144.113L375.66 131.275C378.755 111.354 393.787 82.3577 405.282 82.3577C410.146 82.3577 411.251 87.2273 409.925 95.6385L406.388 117.552C403.514 136.145 413.241 151.196 432.252 151.196C457.011 151.196 471.159 125.52 476.022 106.927C476.685 104.492 476.243 102.943 473.59 102.057L464.969 99.4013C462.316 98.516 460.99 99.4013 459.884 102.057C456.569 110.247 449.274 128.84 439.105 128.84C432.915 128.84 432.252 121.757 434.02 110.026L436.452 93.6464C439.768 73.5039 433.799 57.3457 415.893 57.3457C401.966 57.3457 391.134 66.8636 384.281 75.9387L386.05 64.4288C386.492 61.994 384.945 60.0019 382.292 60.0019H364.828C362.175 60.0019 360.186 61.7726 359.744 64.4288L347.143 144.113Z" fill="#F1F5F9" stroke="#1E293B" stroke-width="4" stroke-miterlimit="2"/>
    <path d="M507.737 72.1748L509.506 61.7716C509.948 59.3368 508.179 57.3447 505.747 57.3447H493.81L496.684 38.5303C497.126 36.0955 495.358 34.1034 492.926 34.1034H475.241C472.588 34.1034 470.599 35.8742 470.157 38.5303L467.062 57.3447H459.546C456.893 57.3447 454.682 59.1154 454.461 61.7716L452.693 72.1748C452.472 74.6096 454.019 76.6017 456.451 76.6017H464.188L457.556 117.551C454.682 136.144 464.63 151.195 484.304 151.195C508.4 151.195 522.769 125.519 527.633 106.926C528.296 104.491 527.854 102.942 525.201 102.056L516.58 99.4003C513.485 98.7363 512.379 99.6217 511.495 102.056C508.4 110.246 500.663 128.839 491.157 128.839C484.304 128.839 483.641 121.756 485.41 110.025L490.715 76.6017H502.653C505.747 76.6017 507.516 74.831 507.737 72.1748Z" fill="#F1F5F9" stroke="#1E293B" stroke-width="4" stroke-miterlimit="2"/>
    <path d="M537.884 19.9374C529.926 19.9374 522.41 26.3565 521.305 34.1036C519.978 41.8507 525.505 48.2697 533.463 48.2697C541.421 48.2697 548.937 41.8507 550.264 34.1036C551.369 26.3565 545.842 19.9374 537.884 19.9374ZM576.57 102.057L568.17 99.4005C565.517 98.7364 563.97 99.4005 562.864 102.057C559.769 110.246 552.253 128.839 542.305 128.839C536.116 128.839 535.232 121.756 537 110.025L544.295 64.4279C544.737 61.9931 542.969 60.001 540.537 60.001H522.852C520.199 60.001 517.989 61.7717 517.768 64.4279L509.367 117.551C506.494 136.144 516.22 151.195 535.232 151.195C560.212 151.195 574.36 125.519 579.223 106.926C579.665 104.491 579.223 102.942 576.57 102.057Z" fill="#F1F5F9" stroke="#1E293B" stroke-width="4" stroke-miterlimit="2"/>
    <path d="M620.876 109.804C618.665 91.2111 604.517 83.2427 602.97 66.1991C602.528 61.5508 601.422 60.0014 598.99 60.0014H581.306C578.653 60.0014 576.663 61.3295 576 65.0924C575.779 66.8631 574.674 71.5114 573.347 75.0529L562.294 102.942C561.631 104.492 562.073 105.377 563.179 106.041L574.737 109.018C576.505 109.46 578.211 109.804 578.432 108.476L584.4 88.9977C590.59 96.0807 595.232 104.492 595.232 112.903C595.232 121.978 589.264 128.84 579.316 128.84C572.463 128.84 568.042 126.184 562.957 121.978C561.41 120.65 560.084 120.429 558.536 122.421C557.652 123.528 552.789 129.061 551.462 131.275C550.357 132.824 550.578 133.709 551.904 135.259C552.789 136.366 565.389 151.196 586.39 151.196C612.475 151.196 623.086 128.397 620.876 109.804Z" fill="#F1F5F9" stroke="#1E293B" stroke-width="4" stroke-miterlimit="2"/>
</svg>
